<svg xmlns="http://www.w3.org/2000/svg" style="background:0 0" width="248.394" height="122" preserveAspectRatio="xMidYMid" viewBox="125.803 14 248.394 122"><defs><filter id="editing-hover" width="300%" height="300%" x="-100%" y="-100%"><feFlood flood-color="#052b4a" result="flood"/><feComposite in="flood" in2="SourceAlpha" operator="in" result="shadow"/><feOffset dx="1.5" dy="-1.9" in="SourceGraphic" result="offset-1"/><feOffset dx="-1.5" dy="1.9" in="shadow" result="offset-2"/><feMerge><feMergeNode in="offset-2"/><feMergeNode in="offset-1"/></feMerge></filter></defs><g filter="url(#editing-hover)"><g><path fill="#ffd5af" d="M29.18 1.28L29.18 1.28L29.18 1.28Q20.99 1.28 20.22-10.37L20.22-10.37L9.22-10.37L9.22-10.37Q7.94-7.42 7.04-4.86L7.04-4.86L5.38 0L-3.58 0L16.58-42.24L30.34-42.24L33.02-11.14L33.02-11.14Q33.66-4.42 36.22-2.43L36.22-2.43L36.22-2.43Q34.37 1.28 29.18 1.28ZM14.72-23.17L11.20-15.04L20.03-15.04L19.26-31.49L19.26-33.22L14.72-23.17ZM40.58-9.47L40.58-9.47L40.58-9.47Q40.58-11.97 41.22-15.17L41.22-15.17L46.40-42.24L60.54-42.24L55.42-14.98L55.42-14.98Q54.85-11.97 54.85-9.76L54.85-9.76L54.85-9.76Q54.85-7.55 55.78-6.40L55.78-6.40L55.78-6.40Q56.70-5.25 58.43-5.25L58.43-5.25L58.43-5.25Q60.16-5.25 61.25-5.70L61.25-5.70L61.25-5.70Q62.34-6.14 63.23-7.23L63.23-7.23L63.23-7.23Q64.96-9.41 66.05-14.98L66.05-14.98L71.23-42.24L80.90-42.24L75.78-15.04L75.78-15.04Q73.98-5.95 69.06-2.30L69.06-2.30L69.06-2.30Q64.26 1.28 54.78 1.28L54.78 1.28L54.78 1.28Q47.68 1.28 43.90-1.79L43.90-1.79L43.90-1.79Q40.58-4.48 40.58-9.47ZM95.30 0L81.60 0L89.41-42.05L89.41-42.05Q95.74-42.75 104.99-42.75L104.99-42.75L104.99-42.75Q114.24-42.75 118.53-40.06L118.53-40.06L118.53-40.06Q122.82-37.38 122.82-31.97L122.82-31.97L122.82-31.97Q122.82-26.56 120.03-23.17L120.03-23.17L120.03-23.17Q117.25-19.78 112.45-18.69L112.45-18.69L112.45-18.69Q113.54-13.38 116.03-9.09L116.03-9.09L116.03-9.09Q118.34-5.06 121.02-3.78L121.02-3.78L121.02-3.78Q120.06-1.09 118.11 0.10L118.11 0.10L118.11 0.10Q116.16 1.28 113.38 1.28L113.38 1.28L113.38 1.28Q110.59 1.28 108.42-0.35L108.42-0.35L108.42-0.35Q106.24-1.98 104.51-4.99L104.51-4.99L104.51-4.99Q100.86-11.52 100.48-21.82L100.48-21.82L100.93-21.82L100.93-21.82Q105.66-21.95 108.03-24.42L108.03-24.42L108.03-24.42Q110.40-26.88 110.40-32.06L110.40-32.06L110.40-32.06Q110.40-38.53 104.96-38.78L104.96-38.78L103.55-38.78L103.55-38.78Q102.98-38.78 102.66-38.72L102.66-38.72L95.30 0ZM153.86 1.28L153.86 1.28L153.86 1.28Q145.66 1.28 144.90-10.37L144.90-10.37L133.89-10.37L133.89-10.37Q132.61-7.42 131.71-4.86L131.71-4.86L130.05 0L121.09 0L141.25-42.24L155.01-42.24L157.70-11.14L157.70-11.14Q158.34-4.42 160.90-2.43L160.90-2.43L160.90-2.43Q159.04 1.28 153.86 1.28ZM139.39-23.17L135.87-15.04L144.70-15.04L143.94-31.49L143.94-33.22L139.39-23.17Z" transform="translate(169.13413047790527, 97.01499938964844)"/></g></g><style/></svg>