<?xml version="1.0" encoding="UTF-8"?>
<svg xmlns="http://www.w3.org/2000/svg" xmlns:xlink="http://www.w3.org/1999/xlink" width="16px" height="16px" viewBox="0 0 16 16" version="1.1">
<g id="surface1">
<rect x="0" y="0" width="16" height="16" style="fill:rgb(0.392157%,0.392157%,0.392157%);fill-opacity:1;stroke:none;"/>
<path style=" stroke:none;fill-rule:nonzero;fill:rgb(88.235294%,79.607843%,51.372549%);fill-opacity:1;" d="M 7.148438 1.410156 C 6.160156 1.542969 5.207031 1.851562 4.375 2.398438 C 0.691406 4.824219 0.304688 10.476562 3.945312 13.164062 C 4.605469 13.652344 5.34375 14.019531 6.132812 14.238281 C 6.941406 14.464844 7.855469 14.539062 8.691406 14.4375 C 9.636719 14.324219 10.546875 14.011719 11.359375 13.523438 C 12.039062 13.113281 12.644531 12.578125 13.125 11.945312 C 15.933594 8.25 14.042969 2.664062 9.492188 1.554688 C 8.753906 1.371094 7.90625 1.304688 7.148438 1.410156 Z M 7.148438 1.410156 "/>
<path style=" stroke:none;fill-rule:nonzero;fill:rgb(0.392157%,0.392157%,0.392157%);fill-opacity:1;" d="M 5.652344 2.347656 L 7.414062 5.867188 L 7.625 6.828125 C 7.207031 6.910156 6.90625 6.320312 6.761719 5.972656 C 6.292969 4.855469 5.84375 3.53125 5.601562 2.347656 C 5.105469 2.554688 4.640625 2.828125 4.214844 3.152344 C 4.074219 3.257812 3.796875 3.425781 3.796875 3.625 C 3.796875 3.851562 4.21875 4.097656 4.375 4.226562 L 6.078125 5.691406 C 6.417969 5.980469 6.691406 6.242188 6.933594 6.613281 C 7 6.71875 7.183594 6.933594 7.09375 7.066406 C 6.984375 7.222656 6.710938 6.996094 6.613281 6.933594 C 6.164062 6.640625 5.855469 6.273438 5.507812 5.867188 L 4.183594 4.320312 C 4.058594 4.175781 3.839844 3.796875 3.625 3.796875 C 3.425781 3.796875 3.257812 4.074219 3.152344 4.214844 C 2.828125 4.640625 2.554688 5.105469 2.347656 5.601562 C 3.53125 5.84375 4.855469 6.292969 5.972656 6.761719 C 6.316406 6.902344 6.914062 7.210938 6.828125 7.625 L 5.867188 7.414062 L 2.347656 5.652344 C 2 6.316406 1.898438 7.15625 1.867188 7.894531 L 5.761719 7.585938 L 6.773438 7.785156 C 6.707031 8.1875 6.003906 8.277344 5.652344 8.261719 C 4.421875 8.207031 3.078125 8.171875 1.867188 7.945312 L 2.292969 10.1875 C 3.410156 9.867188 4.503906 9.085938 5.546875 8.574219 C 5.789062 8.453125 6.554688 8.125 6.796875 8.347656 C 7.007812 8.542969 6.125 9.015625 5.972656 9.078125 C 4.855469 9.542969 3.578125 9.96875 2.398438 10.238281 C 2.492188 10.757812 2.859375 11.273438 3.183594 11.679688 C 3.289062 11.816406 3.472656 12.089844 3.679688 12.035156 C 4.023438 11.945312 4.421875 11.25 4.648438 10.988281 C 5.382812 10.128906 6.042969 9.132812 7.09375 8.640625 C 7.226562 9.078125 6.707031 9.613281 6.398438 9.882812 C 5.746094 10.449219 5.082031 11.007812 4.425781 11.574219 C 4.269531 11.710938 3.796875 11.984375 3.796875 12.21875 C 3.796875 12.550781 4.5 12.910156 4.746094 13.0625 C 5.015625 13.230469 5.308594 13.371094 5.601562 13.492188 C 5.871094 12.320312 6.257812 10.898438 6.785156 9.8125 C 6.941406 9.492188 7.199219 9.226562 7.359375 8.90625 C 7.707031 9.21875 7.496094 9.863281 7.316406 10.238281 C 6.789062 11.351562 6.128906 12.410156 5.652344 13.546875 L 7.894531 13.972656 L 7.585938 10.078125 L 7.785156 9.066406 C 8.1875 9.132812 8.269531 9.835938 8.261719 10.1875 C 8.230469 11.40625 8.167969 12.773438 7.945312 13.972656 L 10.1875 13.546875 C 9.878906 12.476562 9.125 11.398438 8.625 10.398438 C 8.492188 10.128906 8.121094 9.386719 8.324219 9.085938 C 8.511719 8.804688 9.019531 9.71875 9.078125 9.867188 C 9.542969 10.980469 9.96875 12.265625 10.238281 13.441406 C 10.984375 13.328125 11.585938 12.703125 12.160156 12.265625 C 11.453125 11.304688 10.222656 10.585938 9.335938 9.78125 C 9.191406 9.652344 8.5625 8.953125 8.765625 8.761719 C 8.964844 8.570312 9.652344 9.191406 9.78125 9.335938 C 10.585938 10.222656 11.304688 11.453125 12.265625 12.160156 C 12.699219 11.589844 13.328125 10.980469 13.441406 10.238281 C 12.265625 9.96875 10.980469 9.542969 9.867188 9.078125 C 9.71875 9.019531 8.804688 8.511719 9.085938 8.324219 C 9.386719 8.121094 10.128906 8.492188 10.398438 8.625 C 11.398438 9.125 12.476562 9.878906 13.546875 10.1875 L 13.972656 7.945312 C 12.773438 8.167969 11.40625 8.230469 10.1875 8.261719 C 9.835938 8.269531 9.132812 8.1875 9.066406 7.785156 L 10.078125 7.585938 L 13.972656 7.894531 L 13.546875 5.652344 C 12.410156 6.128906 11.351562 6.789062 10.238281 7.316406 C 9.863281 7.496094 9.21875 7.707031 8.90625 7.359375 C 9.226562 7.199219 9.492188 6.941406 9.8125 6.785156 C 10.898438 6.257812 12.320312 5.871094 13.492188 5.601562 C 13.371094 5.308594 13.230469 5.015625 13.0625 4.746094 C 12.914062 4.503906 12.542969 3.796875 12.21875 3.796875 C 11.984375 3.796875 11.710938 4.269531 11.574219 4.425781 C 11.007812 5.082031 10.449219 5.746094 9.882812 6.398438 C 9.613281 6.707031 9.078125 7.226562 8.640625 7.09375 C 9.132812 6.042969 10.128906 5.382812 10.988281 4.648438 C 11.25 4.421875 11.945312 4.023438 12.035156 3.679688 C 12.089844 3.472656 11.8125 3.296875 11.679688 3.191406 C 11.273438 2.863281 10.761719 2.492188 10.238281 2.398438 C 9.96875 3.574219 9.53125 4.792969 9.101562 5.921875 C 9.039062 6.082031 8.589844 6.957031 8.375 6.824219 C 8.121094 6.667969 8.429688 5.851562 8.523438 5.652344 C 9.042969 4.539062 9.714844 3.480469 10.1875 2.347656 C 9.523438 1.996094 8.6875 1.898438 7.945312 1.867188 C 8.167969 3.066406 8.230469 4.433594 8.261719 5.652344 C 8.269531 6.007812 8.1875 6.707031 7.785156 6.773438 L 7.585938 5.761719 L 7.894531 1.867188 C 7.164062 1.882812 6.304688 2.003906 5.652344 2.347656 Z M 5.652344 2.347656 "/>
<path style=" stroke:none;fill-rule:nonzero;fill:rgb(100%,100%,0.392157%);fill-opacity:1;" d="M 7.734375 7.199219 L 7.785156 7.253906 Z M 7.734375 7.199219 "/>
<path style=" stroke:none;fill-rule:nonzero;fill:rgb(88.235294%,79.607843%,51.372549%);fill-opacity:1;" d="M 7.785156 7.230469 C 6.863281 7.441406 7.203125 8.84375 8.105469 8.609375 C 8.96875 8.386719 8.644531 7.03125 7.785156 7.230469 Z M 7.785156 7.230469 "/>
<path style=" stroke:none;fill-rule:nonzero;fill:rgb(82.745098%,80.392157%,50.588235%);fill-opacity:1;" d="M 8.535156 7.574219 L 8.585938 7.625 Z M 8.535156 7.574219 "/>
<path style=" stroke:none;fill-rule:nonzero;fill:rgb(100%,100%,0.392157%);fill-opacity:1;" d="M 7.199219 7.734375 L 7.253906 7.785156 Z M 7.199219 7.734375 "/>
<path style=" stroke:none;fill-rule:nonzero;fill:rgb(82.745098%,80.392157%,50.588235%);fill-opacity:1;" d="M 7.199219 8.054688 L 7.253906 8.105469 Z M 7.199219 8.054688 "/>
<path style=" stroke:none;fill-rule:nonzero;fill:rgb(100%,50.588235%,50.588235%);fill-opacity:1;" d="M 7.253906 8.214844 L 7.308594 8.265625 Z M 7.253906 8.214844 "/>
</g>
</svg>
